Coordinates
version=1
nRows=10
nColumns=40
inDegrees=yes

Units are S.I. units (second, meters, Newtons, ...)
If the header above contains a line with 'inDegrees', this indicates whether rotational values are in degrees (yes) or radians (no).

endheader
time	pelvis_tilt	pelvis_list	pelvis_rotation	pelvis_tx	pelvis_ty	pelvis_tz	hip_flexion_r	hip_adduction_r	hip_rotation_r	knee_angle_r	knee_angle_r_beta	ankle_angle_r	subtalar_angle_r	mtp_angle_r	hip_flexion_l	hip_adduction_l	hip_rotation_l	knee_angle_l	knee_angle_l_beta	ankle_angle_l	subtalar_angle_l	mtp_angle_l	lumbar_extension	lumbar_bending	lumbar_rotation	arm_flex_r	arm_add_r	arm_rot_r	elbow_flex_r	pro_sup_r	wrist_flex_r	wrist_dev_r	arm_flex_l	arm_add_l	arm_rot_l	elbow_flex_l	pro_sup_l	wrist_flex_l	wrist_dev_l
      3.25500000	    -19.81856047	      4.26458895	     -0.96922135	      0.20317481	      0.85984928	     -1.16549408	     37.81783679	    -29.41530042	    -20.91916962	     26.88411419	      0.46921631	      2.12888574	     -5.49887359	      0.00000000	     34.10751822	    -19.80762308	    -17.74399819	     20.36416426	      0.35542172	      0.81816001	     -1.38510239	      0.00000000	      0.00000000	      0.00000000	      0.00000000	     25.44553178	    -11.44995694	     25.44553178	     80.40390547	     43.60675028	      0.00000000	      0.00000000	     25.44553178	    -11.44995694	     25.44553178	     80.40390547	     43.60675028	      0.00000000	      0.00000000
      3.26000000	    -20.10643049	      4.23091242	     -0.84207310	      0.20237430	      0.85881597	     -1.16572425	     38.28774724	    -29.48545371	    -20.73887265	     27.17346429	      0.47426642	      2.24138751	     -5.51734102	      0.00000000	     34.73214791	    -19.86574700	    -17.55836428	     20.76860584	      0.36248055	      1.00005803	     -1.28352362	      0.00000000	      0.00000000	      0.00000000	      0.00000000	     25.69652219	    -11.51881482	     25.69652219	     80.23196702	     43.67606711	      0.00000000	      0.00000000	     25.69652219	    -11.51881482	     25.69652219	     80.23196702	     43.67606711	      0.00000000	      0.00000000
      3.26500000	    -20.32510402	      4.33412372	     -0.76039551	      0.20128723	      0.85775758	     -1.16578949	     38.86941922	    -29.70646147	    -20.55505915	     27.62589369	      0.48216280	      2.31675295	     -5.66663510	      0.00000000	     35.24499902	    -19.77935284	    -17.33780016	     21.12723614	      0.36873983	      0.97718031	     -1.58942178	      0.00000000	      0.00000000	      0.00000000	      0.00000000	     26.00085444	    -11.60392223	     26.00085444	     80.00723103	     43.78906385	      0.00000000	      0.00000000	     26.00085444	    -11.60392223	     26.00085444	     80.00723103	     43.78906385	      0.00000000	      0.00000000
      3.27000000	    -20.95451043	      4.34975827	     -0.77546938	      0.19996729	      0.85565253	     -1.16561093	     40.03101975	    -29.76834785	    -20.18592463	     28.25551680	      0.49315180	      2.43214974	     -5.88037365	      0.00000000	     36.35657702	    -19.98623209	    -17.32366006	     21.88397455	      0.38194741	      1.32913491	     -1.48472791	      0.00000000	      0.00000000	      0.00000000	      0.00000000	     26.48163857	    -11.73752849	     26.48163857	     79.65953645	     43.95761024	      0.00000000	      0.00000000	     26.48163857	    -11.73752849	     26.48163857	     79.65953645	     43.95761024	      0.00000000	      0.00000000
      3.27500000	    -20.88324930	      4.29589514	     -0.77907065	      0.19916638	      0.85529021	     -1.16553172	     40.12473743	    -29.75121368	    -20.04705197	     28.46390161	      0.49678880	      2.44309288	     -5.85446334	      0.00000000	     36.48692335	    -20.08724303	    -17.19283372	     22.11813491	      0.38603428	      1.33225651	     -1.52682584	      0.00000000	      0.00000000	      0.00000000	      0.00000000	     26.54177541	    -11.75385947	     26.54177541	     79.61935586	     43.97434722	      0.00000000	      0.00000000	     26.54177541	    -11.75385947	     26.54177541	     79.61935586	     43.97434722	      0.00000000	      0.00000000
      3.28000000	    -20.83996070	      4.24445825	     -0.75162885	      0.19849626	      0.85489538	     -1.16550272	     40.22096949	    -29.76137289	    -19.96686084	     28.67941237	      0.50055017	      2.49385147	     -5.89585465	      0.00000000	     36.65927842	    -20.17813871	    -17.13296586	     22.36384613	      0.39032275	      1.35226147	     -1.60378044	      0.00000000	      0.00000000	      0.00000000	      0.00000000	     26.60198708	    -11.77020385	     26.60198708	     79.57914729	     43.99120668	      0.00000000	      0.00000000	     26.60198708	    -11.77020385	     26.60198708	     79.57914729	     43.99120668	      0.00000000	      0.00000000
      3.28500000	    -21.02181593	      4.25844997	     -0.44598383	      0.19751396	      0.85352093	     -1.16600090	     40.67457793	    -30.12203982	    -20.06489727	     29.30874617	      0.51153412	      2.71125369	     -6.08637267	      0.00000000	     37.37316463	    -20.10467527	    -16.82574420	     23.03541884	      0.40204390	      1.53874741	     -1.77053922	      0.00000000	      0.00000000	      0.00000000	      0.00000000	     26.68818819	    -11.79375639	     26.68818819	     79.52008711	     44.01796602	      0.00000000	      0.00000000	     26.68818819	    -11.79375639	     26.68818819	     79.52008711	     44.01796602	      0.00000000	      0.00000000
      3.29000000	    -20.99595328	      4.19550262	     -0.45035032	      0.19671290	      0.85305985	     -1.16592105	     40.80417178	    -30.09235398	    -19.93593254	     29.50472741	      0.51495464	      2.74435845	     -6.06698918	      0.00000000	     37.55735027	    -20.21811587	    -16.70739232	     23.27000524	      0.40613821	      1.55453009	     -1.81416168	      0.00000000	      0.00000000	      0.00000000	      0.00000000	     26.74376943	    -11.80882414	     26.74376943	     79.48305782	     44.03368691	      0.00000000	      0.00000000	     26.74376943	    -11.80882414	     26.74376943	     79.48305782	     44.03368691	      0.00000000	      0.00000000
      3.29500000	    -20.94572693	      4.13291024	     -0.44872681	      0.19589456	      0.85259595	     -1.16584114	     40.90631097	    -30.06462599	    -19.78802781	     29.69626264	      0.51829756	      2.75826332	     -6.04799214	      0.00000000	     37.71696357	    -20.32638480	    -16.57220242	     23.49772238	      0.41011262	      1.56307957	     -1.84293364	      0.00000000	      0.00000000	      0.00000000	      0.00000000	     26.79323574	    -11.82221164	     26.79323574	     79.45028293	     44.04747608	      0.00000000	      0.00000000	     26.79323574	    -11.82221164	     26.79323574	     79.45028293	     44.04747608	      0.00000000	      0.00000000
      3.30000000	    -22.01931591	      4.04200154	     -0.01929289	      0.19432531	      0.84890157	     -1.16656852	     42.53773594	    -30.55694785	    -20.13500924	     30.85868890	      0.53858572	      3.31168360	     -5.93498856	      0.00000000	     39.77827435	    -20.41241627	    -16.03872359	     24.81367552	      0.43308034	      2.11205830	     -1.94193458	      0.00000000	      0.00000000	      0.00000000	      0.00000000	     26.93478856	    -11.86072710	     26.93478856	     79.35455816	     44.09004520	      0.00000000	      0.00000000	     26.93478856	    -11.86072710	     26.93478856	     79.35455816	     44.09004520	      0.00000000	      0.00000000
